<svg width="431" height="299" viewBox="0 0 431 299" fill="none" xmlns="http://www.w3.org/2000/svg">
<g clip-path="url(#clip0)">
<path d="M247.052 286.429C254.622 296.558 270.336 297.625 270.336 297.625C270.336 297.625 273.776 282.267 266.206 272.137C258.636 262.008 242.923 260.941 242.923 260.941C242.923 260.941 239.482 276.299 247.052 286.429Z" fill="#D5DEE9"/>
<path d="M285.615 290.236C280.62 296.921 270.251 297.624 270.251 297.624C270.251 297.624 267.98 287.49 272.976 280.806C277.971 274.122 288.34 273.418 288.34 273.418C288.34 273.418 290.61 283.552 285.615 290.236Z" fill="#D5DEE9"/>
<path d="M78.6536 241.819V268.113H71.135L66.1231 240.566L78.6536 241.819Z" fill="#FFB9B9"/>
<path d="M19.1326 241.819V268.113H11.6145L6.60213 240.566L19.1326 241.819Z" fill="#FFB9B9"/>
<path d="M58.7951 47.987C58.7951 47.987 46.7135 39.3101 45.2033 43.4599C43.6931 47.6098 54.2645 55.1549 54.2645 55.1549L58.7951 47.987Z" fill="#FFB9B9"/>
<path d="M15.9434 59.1157C15.9434 74.1172 22.4073 74.5833 32.9373 74.5833C43.4674 74.5833 54.0761 74.1172 54.0761 59.1157C54.0761 44.1142 45.5398 31.9531 35.0097 31.9531C24.4797 31.9531 15.9434 44.1142 15.9434 59.1157Z" fill="#031730"/>
<path d="M41.8054 58.9282C41.8054 58.9282 40.2952 70.2459 47.4686 71.0004C54.6421 71.7549 24.0604 74.0185 24.0604 74.0185C24.0604 74.0185 31.989 66.8506 27.836 61.1917C23.6829 55.5328 41.8054 58.9282 41.8054 58.9282Z" fill="#FFB9B9"/>
<path d="M79.9384 261.141L82.5812 283.399C82.5812 283.399 95.7956 299.621 87.4894 298.489C79.1833 297.357 73.8975 298.73 73.8975 297.221C73.8975 295.712 73.7023 290.32 72.5696 290.32C71.4369 290.32 70.4996 298.834 70.4996 298.834C70.4996 298.834 67.1016 298.577 66.7241 298.2C66.3465 297.822 65.969 276.231 65.969 276.231C65.969 276.231 64.8363 269.818 67.1016 266.8C69.3669 263.781 68.9894 261.141 68.9894 261.141L79.9384 261.141Z" fill="#031730"/>
<path d="M19.7909 260.895L22.4338 283.153C22.4338 283.153 35.6481 299.375 27.342 298.243C19.0358 297.111 13.7501 298.484 13.7501 296.975C13.7501 295.466 13.5548 290.074 12.4221 290.074C11.2895 290.074 10.3521 298.588 10.3521 298.588C10.3521 298.588 6.95416 298.331 6.57661 297.954C6.19906 297.576 5.82151 275.985 5.82151 275.985C5.82151 275.985 4.68886 269.571 6.95416 266.553C9.21947 263.535 8.84192 260.895 8.84192 260.895H19.7909Z" fill="#031730"/>
<path d="M60.3054 128.723C60.3054 128.723 72.3871 163.053 73.1422 170.598C73.8973 178.143 72.3871 203.797 72.3871 203.797C72.3871 203.797 83.3361 248.122 81.0708 248.499C78.8055 248.876 66.1902 250.665 65.8127 248.779C65.4351 246.892 64.0891 243.972 64.4666 242.84C64.8442 241.708 63.334 237.558 63.334 235.295C63.334 233.031 58.0401 221.151 58.4177 219.265C58.7952 217.378 51.9993 189.461 50.8666 187.198C49.734 184.934 46.7136 169.089 46.7136 169.089C46.7136 169.089 29.7237 215.492 29.3462 216.624C28.9686 217.756 27.4584 219.642 28.2135 220.019C28.9686 220.396 27.0809 223.037 27.0809 223.037C27.0809 223.037 23.1686 238.69 23.1686 239.445C23.1686 240.199 23.9237 248.74 22.4135 249.117C20.9033 249.494 5.47727 249.47 4.72216 246.829C3.96706 244.188 12.7339 213.606 12.7339 213.606C12.7339 213.606 19.1523 194.366 17.2645 189.461C15.3768 184.557 19.1523 155.131 20.6625 152.867C22.1727 150.604 22.5502 137.022 22.5502 137.022L60.3054 128.723Z" fill="#031730"/>
<path d="M35.1983 65.1523C41.8708 65.1523 47.2799 59.7474 47.2799 53.0801C47.2799 46.4127 41.8708 41.0078 35.1983 41.0078C28.5257 41.0078 23.1166 46.4127 23.1166 53.0801C23.1166 59.7474 28.5257 65.1523 35.1983 65.1523Z" fill="#FFB9B9"/>
<path d="M41.8055 68.3623C41.8055 68.3623 28.2136 68.7396 27.4585 67.6078C26.7034 66.476 7.82584 70.2486 7.82584 77.7938C7.82584 85.3389 18.7748 114.765 18.7748 114.765C18.7748 114.765 22.9279 135.892 21.7953 138.155C20.6626 140.419 63.7035 133.251 62.5708 129.478C61.4382 125.706 55.0198 117.406 63.3259 110.238C71.6321 103.07 75.03 95.5249 75.03 95.5249L65.2137 69.4941C65.2137 69.4941 55.3974 67.985 53.132 69.4941C50.8667 71.0031 41.8055 68.3623 41.8055 68.3623Z" fill="#235797"/>
<path d="M72.3873 97.409L75.0302 95.5227C75.0302 95.5227 99.571 69.8691 93.1527 64.9648C86.7343 60.0604 77.2955 55.5333 72.7649 55.1561C68.2343 54.7788 64.4587 51.3835 64.4587 51.3835C64.4587 51.3835 59.5506 42.7065 55.7751 48.3654C51.9995 54.0243 47.8465 55.9106 53.1322 57.7969C58.4179 59.6832 61.8159 58.9287 64.4587 60.8149C67.1016 62.7012 77.2955 65.7193 72.7649 66.8511C70.1669 67.4803 67.6375 68.3649 65.2138 69.4919L60.3057 78.1688L72.3873 97.409Z" fill="#235797"/>
<path d="M29.724 161.164C29.724 161.164 39.5404 175.5 32.3669 174.745C25.1934 173.991 21.7954 164.182 21.7954 164.182L29.724 161.164Z" fill="#FFB9B9"/>
<path d="M10.4688 75.9062L7.8259 77.7925C7.8259 77.7925 -0.857789 125.327 7.8259 137.777C16.5096 150.226 17.2647 149.472 17.2647 149.472C17.2647 149.472 18.7749 148.34 19.53 155.885C20.2851 163.43 19.1525 166.448 21.4178 166.448C23.6831 166.448 33.877 164.185 33.1219 162.298C32.3668 160.412 27.4586 149.472 27.081 146.831C26.7035 144.19 24.8157 138.154 24.0606 134.759C23.3055 131.363 27.4586 129.477 25.5708 122.309C23.6831 115.141 21.0402 102.314 21.0402 99.6735C21.0402 97.0327 10.4688 75.9062 10.4688 75.9062Z" fill="#235797"/>
<path d="M23.4944 42.3292C23.4944 46.3921 29.0726 49.6857 35.9536 49.6857C42.8347 49.6857 49.168 51.8623 49.168 47.7994C49.168 43.7365 42.8347 34.9727 35.9536 34.9727C29.0726 34.9727 23.4944 38.2663 23.4944 42.3292Z" fill="#031730"/>
<path d="M53.963 61.6641C53.963 61.6641 54.4715 75.3401 40.8708 74.5856C27.27 73.8311 42.7088 62.8955 42.7088 62.8955L53.963 61.6641Z" fill="#031730"/>
<path d="M369.004 297.625H0V298.8H369.004V297.625Z" fill="#07254A"/>
<path d="M429.999 0.183594H104.138V208.999H429.999V0.183594Z" fill="#E7E7E7"/>
<path d="M420.682 26.375H113.457V196.646H420.682V26.375Z" fill="white"/>
<path d="M429.861 0H104V13.8517H429.861V0Z" fill="#235797"/>
<path d="M114.287 9.65024C115.705 9.65024 116.853 8.50082 116.853 7.08293C116.853 5.66505 115.705 4.51562 114.287 4.51562C112.87 4.51562 111.722 5.66505 111.722 7.08293C111.722 8.50082 112.87 9.65024 114.287 9.65024Z" fill="white"/>
<path d="M124.027 9.65024C125.444 9.65024 126.593 8.50082 126.593 7.08293C126.593 5.66505 125.444 4.51562 124.027 4.51562C122.61 4.51562 121.461 5.66505 121.461 7.08293C121.461 8.50082 122.61 9.65024 124.027 9.65024Z" fill="white"/>
<path d="M133.766 9.65024C135.183 9.65024 136.332 8.50082 136.332 7.08293C136.332 5.66505 135.183 4.51562 133.766 4.51562C132.349 4.51562 131.2 5.66505 131.2 7.08293C131.2 8.50082 132.349 9.65024 133.766 9.65024Z" fill="white"/>
<path d="M291.391 144.132H227.797C227.583 144.104 227.387 143.999 227.245 143.837C227.103 143.675 227.025 143.467 227.025 143.252C227.025 143.036 227.103 142.828 227.245 142.666C227.387 142.504 227.583 142.399 227.797 142.371H291.391C291.605 142.399 291.801 142.504 291.943 142.666C292.085 142.828 292.163 143.036 292.163 143.252C292.163 143.467 292.085 143.675 291.943 143.837C291.801 143.999 291.605 144.104 291.391 144.132H291.391Z" fill="#CCCCCC"/>
<path d="M336.689 152.664H273.095C272.881 152.636 272.685 152.531 272.543 152.369C272.401 152.207 272.323 151.998 272.323 151.783C272.323 151.568 272.401 151.359 272.543 151.197C272.685 151.035 272.881 150.931 273.095 150.902H336.689C336.903 150.931 337.099 151.035 337.241 151.197C337.383 151.359 337.461 151.568 337.461 151.783C337.461 151.998 337.383 152.207 337.241 152.369C337.099 152.531 336.903 152.636 336.689 152.664Z" fill="#CCCCCC"/>
<path d="M321.685 144.132H303.471C303.258 144.104 303.062 143.999 302.92 143.837C302.778 143.675 302.7 143.467 302.7 143.252C302.7 143.036 302.778 142.828 302.92 142.666C303.062 142.504 303.258 142.399 303.471 142.371H321.685C321.899 142.399 322.095 142.504 322.237 142.666C322.379 142.828 322.457 143.036 322.457 143.252C322.457 143.467 322.379 143.675 322.237 143.837C322.095 143.999 321.899 144.104 321.685 144.132Z" fill="#CCCCCC"/>
<path d="M219.364 135.07H201.15C200.937 135.042 200.741 134.937 200.599 134.775C200.457 134.613 200.379 134.405 200.379 134.189C200.379 133.974 200.457 133.766 200.599 133.604C200.741 133.442 200.937 133.337 201.15 133.309H219.364C219.578 133.337 219.774 133.442 219.916 133.604C220.058 133.766 220.136 133.974 220.136 134.189C220.136 134.405 220.058 134.613 219.916 134.775C219.774 134.937 219.578 135.042 219.364 135.07Z" fill="#CCCCCC"/>
<path d="M219.364 144.132H201.15C200.937 144.104 200.741 143.999 200.599 143.837C200.457 143.675 200.379 143.467 200.379 143.252C200.379 143.036 200.457 142.828 200.599 142.666C200.741 142.504 200.937 142.399 201.15 142.371H219.364C219.578 142.399 219.774 142.504 219.916 142.666C220.058 142.828 220.136 143.036 220.136 143.252C220.136 143.467 220.058 143.675 219.916 143.837C219.774 143.999 219.578 144.104 219.364 144.132Z" fill="#CCCCCC"/>
<path d="M264.214 153.398H200.62C200.406 153.37 200.21 153.265 200.068 153.103C199.926 152.941 199.848 152.733 199.848 152.517C199.848 152.302 199.926 152.094 200.068 151.932C200.21 151.77 200.406 151.665 200.62 151.637H264.214C264.428 151.665 264.624 151.77 264.766 151.932C264.908 152.094 264.986 152.302 264.986 152.517C264.986 152.733 264.908 152.941 264.766 153.103C264.624 153.265 264.428 153.37 264.214 153.398H264.214Z" fill="#CCCCCC"/>
<path d="M263.906 172.773H200.311C200.097 172.745 199.901 172.64 199.759 172.478C199.617 172.316 199.539 172.108 199.539 171.892C199.539 171.677 199.617 171.469 199.759 171.307C199.901 171.145 200.097 171.04 200.311 171.012H263.906C264.119 171.04 264.315 171.145 264.457 171.307C264.599 171.469 264.677 171.677 264.677 171.892C264.677 172.108 264.599 172.316 264.457 172.478C264.315 172.64 264.119 172.745 263.906 172.773H263.906Z" fill="#CCCCCC"/>
<path d="M264.06 182.461H200.465C200.252 182.432 200.055 182.328 199.914 182.166C199.772 182.004 199.693 181.795 199.693 181.58C199.693 181.364 199.772 181.156 199.914 180.994C200.055 180.832 200.252 180.727 200.465 180.699H264.06C264.273 180.727 264.469 180.832 264.611 180.994C264.753 181.156 264.831 181.364 264.831 181.58C264.831 181.795 264.753 182.004 264.611 182.166C264.469 182.328 264.273 182.432 264.06 182.461H264.06Z" fill="#CCCCCC"/>
<path d="M291.226 172.949H273.012C272.799 172.921 272.603 172.816 272.461 172.654C272.319 172.492 272.24 172.284 272.24 172.068C272.24 171.853 272.319 171.645 272.461 171.483C272.603 171.321 272.799 171.216 273.012 171.188H291.226C291.44 171.216 291.636 171.321 291.778 171.483C291.92 171.645 291.998 171.853 291.998 172.068C291.998 172.284 291.92 172.492 291.778 172.654C291.636 172.816 291.44 172.921 291.226 172.949Z" fill="#CCCCCC"/>
<path d="M291.226 182.461H273.012C272.799 182.432 272.603 182.328 272.461 182.166C272.319 182.004 272.24 181.795 272.24 181.58C272.24 181.364 272.319 181.156 272.461 180.994C272.603 180.832 272.799 180.727 273.012 180.699H291.226C291.44 180.727 291.636 180.832 291.778 180.994C291.92 181.156 291.998 181.364 291.998 181.58C291.998 181.795 291.92 182.004 291.778 182.166C291.636 182.328 291.44 182.432 291.226 182.461Z" fill="#CCCCCC"/>
<path d="M321.789 172.949H303.575C303.361 172.921 303.165 172.816 303.023 172.654C302.881 172.492 302.803 172.284 302.803 172.068C302.803 171.853 302.881 171.645 303.023 171.483C303.165 171.321 303.361 171.216 303.575 171.188H321.789C322.002 171.216 322.198 171.321 322.34 171.483C322.482 171.645 322.561 171.853 322.561 172.068C322.561 172.284 322.482 172.492 322.34 172.654C322.198 172.816 322.002 172.921 321.789 172.949Z" fill="#CCCCCC"/>
<path d="M333.828 163.086H233.806C233.592 163.057 233.396 162.953 233.254 162.791C233.112 162.628 233.034 162.42 233.034 162.205C233.034 161.989 233.112 161.781 233.254 161.619C233.396 161.457 233.592 161.352 233.806 161.324H333.828C334.042 161.352 334.238 161.457 334.38 161.619C334.522 161.781 334.6 161.989 334.6 162.205C334.6 162.42 334.522 162.628 334.38 162.791C334.238 162.953 334.042 163.057 333.828 163.086Z" fill="#CCCCCC"/>
<path d="M218.679 163.086H200.465C200.251 163.057 200.055 162.953 199.914 162.791C199.772 162.628 199.693 162.42 199.693 162.205C199.693 161.989 199.772 161.781 199.914 161.619C200.055 161.457 200.251 161.352 200.465 161.324H218.679C218.892 161.352 219.089 161.457 219.23 161.619C219.372 161.781 219.451 161.989 219.451 162.205C219.451 162.42 219.372 162.628 219.23 162.791C219.089 162.953 218.892 163.057 218.679 163.086Z" fill="#CCCCCC"/>
<g filter="url(#filter0_d)">
<path d="M243.677 112C243.077 112 242.544 111.8 242.077 111.4C241.677 110.933 241.477 110.4 241.477 109.8C241.477 109.2 241.711 108.633 242.177 108.1L259.177 85.3L243.377 63.9C242.977 63.3667 242.777 62.8 242.777 62.2C242.777 61.6 242.977 61.1 243.377 60.7C243.844 60.2333 244.377 60 244.977 60H253.677C254.344 60 254.844 60.1667 255.177 60.5C255.577 60.7667 255.977 61.1667 256.377 61.7L267.677 76.7L278.977 61.7C279.044 61.6333 279.311 61.3333 279.777 60.8C280.177 60.2667 280.811 60 281.677 60H289.977C290.577 60 291.077 60.2333 291.477 60.7C291.944 61.1 292.177 61.5667 292.177 62.1C292.177 62.7667 291.977 63.3667 291.577 63.9L275.577 85.5L292.677 108.1C293.144 108.633 293.377 109.2 293.377 109.8C293.377 110.4 293.144 110.933 292.677 111.4C292.277 111.8 291.777 112 291.177 112H282.077C281.011 112 280.111 111.467 279.377 110.4L267.377 94.5L255.177 110.4C254.444 111.467 253.544 112 252.477 112H243.677Z" fill="#C82323"/>
</g>
</g>
<defs>
<filter id="filter0_d" x="237.477" y="60" width="59.9" height="60" filterUnits="userSpaceOnUse" color-interpolation-filters="sRGB">
<feFlood flood-opacity="0" result="BackgroundImageFix"/>
<feColorMatrix in="SourceAlpha" type="matrix" values="0 0 0 0 0 0 0 0 0 0 0 0 0 0 0 0 0 0 127 0"/>
<feOffset dy="4"/>
<feGaussianBlur stdDeviation="2"/>
<feColorMatrix type="matrix" values="0 0 0 0 0 0 0 0 0 0 0 0 0 0 0 0 0 0 0.25 0"/>
<feBlend mode="normal" in2="BackgroundImageFix" result="effect1_dropShadow"/>
<feBlend mode="normal" in="SourceGraphic" in2="effect1_dropShadow" result="shape"/>
</filter>
<clipPath id="clip0">
<rect width="431" height="299" fill="white"/>
</clipPath>
</defs>
</svg>
