<svg width="416" height="214" viewBox="0 0 416 214" fill="none" xmlns="http://www.w3.org/2000/svg">
<path d="M415.447 213.952H0.552269C0.40604 213.952 0.265948 213.893 0.162698 213.79C0.0594487 213.687 0.00146484 213.547 0.00146484 213.401C0.00146484 213.255 0.0594487 213.115 0.162698 213.012C0.265948 212.908 0.40604 212.85 0.552269 212.85H415.447C415.594 212.85 415.734 212.908 415.837 213.012C415.94 213.115 415.998 213.255 415.998 213.401C415.998 213.547 415.94 213.687 415.837 213.79C415.734 213.893 415.594 213.952 415.447 213.952Z" fill="#111821"/>
<path d="M130.066 26.5939C131.723 26.5939 133.066 25.2536 133.066 23.6002C133.066 21.9468 131.723 20.6064 130.066 20.6064C128.409 20.6064 127.066 21.9468 127.066 23.6002C127.066 25.2536 128.409 26.5939 130.066 26.5939Z" fill="#F2F2F2"/>
<path d="M118.109 26.5939C119.766 26.5939 121.109 25.2536 121.109 23.6002C121.109 21.9468 119.766 20.6064 118.109 20.6064C116.452 20.6064 115.109 21.9468 115.109 23.6002C115.109 25.2536 116.452 26.5939 118.109 26.5939Z" fill="#F2F2F2"/>
<path d="M106.152 26.5939C107.809 26.5939 109.152 25.2536 109.152 23.6002C109.152 21.9468 107.809 20.6064 106.152 20.6064C104.495 20.6064 103.151 21.9468 103.151 23.6002C103.151 25.2536 104.495 26.5939 106.152 26.5939Z" fill="#F2F2F2"/>
<path d="M94.1946 26.5939C95.8515 26.5939 97.1948 25.2536 97.1948 23.6002C97.1948 21.9468 95.8515 20.6064 94.1946 20.6064C92.5376 20.6064 91.1943 21.9468 91.1943 23.6002C91.1943 25.2536 92.5376 26.5939 94.1946 26.5939Z" fill="#F2F2F2"/>
<path d="M130.066 39.0929C131.723 39.0929 133.066 37.7526 133.066 36.0992C133.066 34.4458 131.723 33.1055 130.066 33.1055C128.409 33.1055 127.066 34.4458 127.066 36.0992C127.066 37.7526 128.409 39.0929 130.066 39.0929Z" fill="#F2F2F2"/>
<path d="M118.109 39.0929C119.766 39.0929 121.109 37.7526 121.109 36.0992C121.109 34.4458 119.766 33.1055 118.109 33.1055C116.452 33.1055 115.109 34.4458 115.109 36.0992C115.109 37.7526 116.452 39.0929 118.109 39.0929Z" fill="#F2F2F2"/>
<path d="M106.152 39.0929C107.809 39.0929 109.152 37.7526 109.152 36.0992C109.152 34.4458 107.809 33.1055 106.152 33.1055C104.495 33.1055 103.151 34.4458 103.151 36.0992C103.151 37.7526 104.495 39.0929 106.152 39.0929Z" fill="#F2F2F2"/>
<path d="M94.1946 39.0929C95.8515 39.0929 97.1948 37.7526 97.1948 36.0992C97.1948 34.4458 95.8515 33.1055 94.1946 33.1055C92.5376 33.1055 91.1943 34.4458 91.1943 36.0992C91.1943 37.7526 92.5376 39.0929 94.1946 39.0929Z" fill="#F2F2F2"/>
<path d="M130.066 51.5919C131.723 51.5919 133.066 50.2516 133.066 48.5982C133.066 46.9448 131.723 45.6045 130.066 45.6045C128.409 45.6045 127.066 46.9448 127.066 48.5982C127.066 50.2516 128.409 51.5919 130.066 51.5919Z" fill="#F2F2F2"/>
<path d="M118.109 51.5919C119.766 51.5919 121.109 50.2516 121.109 48.5982C121.109 46.9448 119.766 45.6045 118.109 45.6045C116.452 45.6045 115.109 46.9448 115.109 48.5982C115.109 50.2516 116.452 51.5919 118.109 51.5919Z" fill="#F2F2F2"/>
<path d="M106.152 51.5919C107.809 51.5919 109.152 50.2516 109.152 48.5982C109.152 46.9448 107.809 45.6045 106.152 45.6045C104.495 45.6045 103.151 46.9448 103.151 48.5982C103.151 50.2516 104.495 51.5919 106.152 51.5919Z" fill="#F2F2F2"/>
<path d="M94.1946 51.5919C95.8515 51.5919 97.1948 50.2516 97.1948 48.5982C97.1948 46.9448 95.8515 45.6045 94.1946 45.6045C92.5376 45.6045 91.1943 46.9448 91.1943 48.5982C91.1943 50.2516 92.5376 51.5919 94.1946 51.5919Z" fill="#F2F2F2"/>
<path d="M130.066 64.0919C131.723 64.0919 133.066 62.7516 133.066 61.0982C133.066 59.4448 131.723 58.1045 130.066 58.1045C128.409 58.1045 127.066 59.4448 127.066 61.0982C127.066 62.7516 128.409 64.0919 130.066 64.0919Z" fill="#F2F2F2"/>
<path d="M118.109 64.0919C119.766 64.0919 121.109 62.7516 121.109 61.0982C121.109 59.4448 119.766 58.1045 118.109 58.1045C116.452 58.1045 115.109 59.4448 115.109 61.0982C115.109 62.7516 116.452 64.0919 118.109 64.0919Z" fill="#F2F2F2"/>
<path d="M106.152 64.0919C107.809 64.0919 109.152 62.7516 109.152 61.0982C109.152 59.4448 107.809 58.1045 106.152 58.1045C104.495 58.1045 103.151 59.4448 103.151 61.0982C103.151 62.7516 104.495 64.0919 106.152 64.0919Z" fill="#F2F2F2"/>
<path d="M94.1946 64.0919C95.8515 64.0919 97.1948 62.7516 97.1948 61.0982C97.1948 59.4448 95.8515 58.1045 94.1946 58.1045C92.5376 58.1045 91.1943 59.4448 91.1943 61.0982C91.1943 62.7516 92.5376 64.0919 94.1946 64.0919Z" fill="#F2F2F2"/>
<path d="M130.066 76.591C131.723 76.591 133.066 75.2506 133.066 73.5972C133.066 71.9439 131.723 70.6035 130.066 70.6035C128.409 70.6035 127.066 71.9439 127.066 73.5972C127.066 75.2506 128.409 76.591 130.066 76.591Z" fill="#F2F2F2"/>
<path d="M118.109 76.591C119.766 76.591 121.109 75.2506 121.109 73.5972C121.109 71.9439 119.766 70.6035 118.109 70.6035C116.452 70.6035 115.109 71.9439 115.109 73.5972C115.109 75.2506 116.452 76.591 118.109 76.591Z" fill="#F2F2F2"/>
<path d="M106.152 76.591C107.809 76.591 109.152 75.2506 109.152 73.5972C109.152 71.9439 107.809 70.6035 106.152 70.6035C104.495 70.6035 103.151 71.9439 103.151 73.5972C103.151 75.2506 104.495 76.591 106.152 76.591Z" fill="#F2F2F2"/>
<path d="M94.1946 76.591C95.8515 76.591 97.1948 75.2506 97.1948 73.5972C97.1948 71.9439 95.8515 70.6035 94.1946 70.6035C92.5376 70.6035 91.1943 71.9439 91.1943 73.5972C91.1943 75.2506 92.5376 76.591 94.1946 76.591Z" fill="#F2F2F2"/>
<path d="M130.066 89.09C131.723 89.09 133.066 87.7497 133.066 86.0963C133.066 84.4429 131.723 83.1025 130.066 83.1025C128.409 83.1025 127.066 84.4429 127.066 86.0963C127.066 87.7497 128.409 89.09 130.066 89.09Z" fill="#F2F2F2"/>
<path d="M118.109 89.09C119.766 89.09 121.109 87.7497 121.109 86.0963C121.109 84.4429 119.766 83.1025 118.109 83.1025C116.452 83.1025 115.109 84.4429 115.109 86.0963C115.109 87.7497 116.452 89.09 118.109 89.09Z" fill="#F2F2F2"/>
<path d="M106.152 89.09C107.809 89.09 109.152 87.7497 109.152 86.0963C109.152 84.4429 107.809 83.1025 106.152 83.1025C104.495 83.1025 103.151 84.4429 103.151 86.0963C103.151 87.7497 104.495 89.09 106.152 89.09Z" fill="#F2F2F2"/>
<path d="M94.1946 89.09C95.8515 89.09 97.1948 87.7497 97.1948 86.0963C97.1948 84.4429 95.8515 83.1025 94.1946 83.1025C92.5376 83.1025 91.1943 84.4429 91.1943 86.0963C91.1943 87.7497 92.5376 89.09 94.1946 89.09Z" fill="#F2F2F2"/>
<path d="M103.703 167.766V168.692C103.704 170.226 104.316 171.697 105.403 172.782C106.49 173.867 107.964 174.477 109.502 174.479H151.256C152.794 174.478 154.269 173.868 155.356 172.783C156.444 171.698 157.055 170.227 157.056 168.692V167.766C157.058 166.412 156.582 165.1 155.71 164.063C155.42 163.718 155.091 163.408 154.731 163.137C154.731 163.137 131.776 162.618 131.776 161.979H109.502C107.965 161.982 106.491 162.592 105.404 163.677C104.317 164.761 103.705 166.232 103.703 167.766Z" fill="#CFCFCF"/>
<path d="M133.73 174.249H127.699V213.135H133.73V174.249Z" fill="#CFCFCF"/>
<path d="M150.896 212.924C150.896 213.574 141.757 213.175 130.483 213.175C119.209 213.175 110.07 213.574 110.07 212.924C110.07 212.274 119.209 207.117 130.483 207.117C141.757 207.117 150.896 212.274 150.896 212.924Z" fill="#CFCFCF"/>
<path d="M142.604 166.981C143.039 166.398 143.341 165.727 143.489 165.015C143.636 164.303 143.625 163.568 143.457 162.86C143.288 162.153 142.967 161.491 142.514 160.921C142.062 160.351 141.489 159.887 140.838 159.562L128.055 116.1L118.321 120.857L133.947 162.083C133.472 163.211 133.428 164.475 133.824 165.633C134.22 166.792 135.028 167.765 136.095 168.369C137.162 168.973 138.414 169.165 139.614 168.909C140.814 168.653 141.877 167.967 142.604 166.981L142.604 166.981Z" fill="#A0616A"/>
<path d="M130.951 123.358L120.056 126.3C119.746 126.384 119.422 126.4 119.105 126.348C118.789 126.295 118.487 126.175 118.221 125.995C117.955 125.816 117.731 125.581 117.564 125.307C117.397 125.034 117.291 124.727 117.253 124.409L115.936 113.258C115.516 111.673 115.743 109.987 116.567 108.568C117.391 107.15 118.745 106.116 120.332 105.692C121.919 105.268 123.61 105.49 125.034 106.308C126.458 107.126 127.498 108.474 127.927 110.057L132.415 120.314C132.544 120.607 132.607 120.925 132.601 121.246C132.595 121.566 132.521 121.881 132.382 122.17C132.243 122.459 132.043 122.715 131.796 122.92C131.549 123.124 131.261 123.274 130.951 123.358H130.951Z" fill="#235797"/>
<path d="M145.451 208.366L151.139 208.366L153.845 193.646H145.45L145.451 208.366Z" fill="#A0616A"/>
<path d="M144 206.513L155.202 206.513H155.202C156.14 206.513 157.068 206.697 157.934 207.055C158.8 207.413 159.587 207.937 160.25 208.599C160.913 209.26 161.438 210.045 161.797 210.91C162.156 211.774 162.34 212.7 162.34 213.635V213.867L144.001 213.868L144 206.513Z" fill="#031730"/>
<path d="M152.053 200.473C151.987 200.473 151.921 200.469 151.854 200.463L143.982 199.891C143.664 199.862 143.357 199.76 143.084 199.593C142.812 199.426 142.581 199.199 142.41 198.93C142.24 198.66 142.133 198.355 142.099 198.038C142.065 197.72 142.105 197.4 142.215 197.1L152.749 173.484C152.825 173.273 152.855 173.049 152.84 172.826C152.824 172.604 152.762 172.386 152.658 172.188C152.555 171.988 152.41 171.812 152.233 171.671C152.056 171.531 151.851 171.429 151.633 171.374C146.679 170.081 133.97 166.641 122.968 162.616C118.254 160.891 115.285 158.399 114.144 155.208C112.639 151.001 114.865 147.165 114.961 147.004L115.036 146.878L125.388 147.817L136.611 148.769L161.206 161.93C163.267 163.042 164.832 164.887 165.591 167.099C166.349 169.312 166.244 171.727 165.297 173.866L153.958 199.238C153.794 199.605 153.527 199.918 153.189 200.137C152.851 200.356 152.456 200.473 152.053 200.473Z" fill="#031730"/>
<path d="M127.188 101.094C133.481 101.094 138.583 96.0031 138.583 89.7236C138.583 83.4441 133.481 78.3535 127.188 78.3535C120.895 78.3535 115.793 83.4441 115.793 89.7236C115.793 96.0031 120.895 101.094 127.188 101.094Z" fill="#A0616A"/>
<path d="M142.204 207.902L147.892 207.902L150.598 193.183H142.203L142.204 207.902Z" fill="#A0616A"/>
<path d="M140.753 206.05L151.954 206.05H151.955C152.892 206.05 153.82 206.234 154.686 206.592C155.552 206.95 156.339 207.475 157.002 208.136C157.665 208.797 158.191 209.583 158.55 210.447C158.908 211.311 159.093 212.237 159.093 213.173V213.404L140.753 213.405L140.753 206.05Z" fill="#031730"/>
<path d="M148.806 201.861C148.74 201.861 148.673 201.858 148.606 201.852L140.735 201.28C140.416 201.25 140.109 201.148 139.837 200.982C139.564 200.815 139.334 200.588 139.163 200.318C138.992 200.049 138.886 199.743 138.852 199.426C138.818 199.109 138.857 198.788 138.968 198.489L149.502 174.873C149.577 174.662 149.608 174.438 149.592 174.215C149.577 173.992 149.515 173.775 149.411 173.577C149.307 173.377 149.162 173.2 148.985 173.06C148.809 172.92 148.604 172.818 148.385 172.762C143.431 171.47 130.722 168.03 119.72 164.004C115.007 162.28 112.038 159.787 110.897 156.597C109.392 152.39 111.618 148.554 111.713 148.393L111.788 148.267L122.141 149.206L133.364 150.158L157.959 163.318C160.019 164.43 161.585 166.276 162.343 168.488C163.101 170.7 162.997 173.116 162.05 175.254L150.711 200.627C150.547 200.994 150.28 201.306 149.941 201.525C149.603 201.744 149.209 201.861 148.806 201.861Z" fill="#031730"/>
<path d="M130.702 107.541L118.64 103.375C118.64 103.375 111.068 109.18 114.706 123.581C116.605 131.013 116.051 138.857 113.128 145.95C112.776 146.828 112.37 147.683 111.913 148.511C111.913 148.511 125.367 164.713 137.894 152.677L133.022 129.299C133.022 129.299 140.677 113.791 130.702 107.541Z" fill="#031730"/>
<path d="M128.603 101.48C126.981 99.0582 125.701 95.6995 127.487 93.3949C129.249 91.12 132.726 91.4551 135.425 90.4485C139.185 89.0464 141.365 84.639 140.685 80.6919C140.005 76.7448 136.83 73.4728 133.047 72.134C129.264 70.7952 124.999 71.2306 121.294 72.7723C116.734 74.6702 112.822 78.3415 111.182 82.9921C109.541 87.6427 110.418 93.2266 113.821 96.8011C117.47 100.633 123.195 101.655 128.492 101.593" fill="#031730"/>
<path d="M118.003 80.819C115.96 82.479 112.842 81.7417 110.648 80.2849C108.455 78.828 106.675 76.7535 104.301 75.6113C100.117 73.5975 95.0579 74.9362 90.9855 77.1668C86.9131 79.3973 83.3031 82.4789 79.0014 84.2293C74.6998 85.9797 69.2106 86.0663 65.9533 82.7611C65.1517 85.0784 65.0862 87.5861 65.7657 89.942C66.4451 92.2979 67.8365 94.3872 69.7499 95.9249C71.6633 97.4627 74.0056 98.3739 76.4572 98.5342C78.9087 98.6946 81.3502 98.0963 83.4484 96.821C88.1617 93.9562 90.7651 87.9495 96.0516 86.3683C98.977 85.4933 102.118 86.198 105.075 86.9613C108.031 87.7246 111.114 88.5494 114.098 87.8996C117.082 87.2498 119.873 84.5743 119.493 81.5506L118.003 80.819Z" fill="#031730"/>
<path d="M155.097 187.953C153.89 180.133 153.89 172.175 155.097 164.355C155.173 163.889 155.413 163.466 155.773 163.16C156.133 162.855 156.59 162.687 157.063 162.686H175.561C175.861 162.685 176.157 162.752 176.426 162.882C176.696 163.013 176.932 163.203 177.117 163.438C177.306 163.677 177.438 163.955 177.503 164.253C177.568 164.55 177.564 164.858 177.492 165.153C175.762 172.385 175.762 179.922 177.492 187.154C177.564 187.45 177.568 187.758 177.503 188.055C177.438 188.352 177.306 188.631 177.117 188.869C176.932 189.105 176.696 189.295 176.426 189.425C176.157 189.556 175.861 189.623 175.561 189.622H157.063C156.59 189.621 156.133 189.453 155.773 189.147C155.413 188.841 155.173 188.418 155.097 187.953Z" fill="#235797"/>
<path d="M169.868 174.109H160.161C159.792 174.109 159.438 173.962 159.177 173.702C158.916 173.442 158.77 173.089 158.769 172.72V172.178C158.77 171.81 158.916 171.457 159.177 171.196C159.438 170.936 159.792 170.789 160.161 170.789H169.868C170.237 170.789 170.591 170.936 170.852 171.196C171.113 171.457 171.26 171.81 171.26 172.178V172.72C171.26 173.089 171.113 173.442 170.852 173.702C170.591 173.962 170.237 174.109 169.868 174.109Z" fill="white"/>
<path d="M169.868 179.824H160.161C159.792 179.824 159.438 179.677 159.177 179.417C158.916 179.157 158.77 178.804 158.769 178.435V177.893C158.77 177.524 158.916 177.171 159.177 176.911C159.438 176.651 159.792 176.504 160.161 176.504H169.868C170.237 176.504 170.591 176.651 170.852 176.911C171.113 177.171 171.26 177.524 171.26 177.893V178.435C171.26 178.804 171.113 179.157 170.852 179.417C170.591 179.677 170.237 179.824 169.868 179.824Z" fill="white"/>
<path d="M159.961 164.898C160.237 164.225 160.361 163.5 160.326 162.774C160.29 162.047 160.095 161.338 159.755 160.695C159.415 160.052 158.938 159.491 158.357 159.052C157.776 158.613 157.106 158.307 156.393 158.154L133.134 119.257L124.9 126.29L150.352 162.313C150.175 163.524 150.449 164.758 151.122 165.781C151.796 166.804 152.822 167.546 154.006 167.864C155.191 168.183 156.451 168.057 157.549 167.51C158.646 166.963 159.505 166.034 159.961 164.898L159.961 164.898Z" fill="#A0616A"/>
<path d="M137.755 125.563L127.943 131.128C127.664 131.287 127.354 131.383 127.034 131.411C126.714 131.439 126.392 131.398 126.089 131.29C125.787 131.183 125.511 131.012 125.281 130.788C125.051 130.565 124.871 130.295 124.755 129.996L120.688 119.527C119.885 118.097 119.682 116.407 120.125 114.829C120.567 113.25 121.619 111.911 123.05 111.105C124.481 110.299 126.173 110.092 127.757 110.529C129.34 110.966 130.685 112.012 131.497 113.438L138.411 122.25C138.609 122.503 138.75 122.795 138.824 123.106C138.899 123.418 138.905 123.742 138.843 124.056C138.781 124.371 138.652 124.668 138.464 124.928C138.276 125.188 138.034 125.404 137.755 125.563Z" fill="#031730"/>
<path d="M242.16 139.227H53.8015C53.0017 139.227 52.2347 139.544 51.6691 140.108C51.1036 140.672 50.7859 141.438 50.7859 142.236C50.7859 143.034 51.1036 143.799 51.6691 144.363C52.2347 144.928 53.0017 145.245 53.8015 145.245H59.1367V210.749C59.1367 211.547 59.4545 212.313 60.02 212.877C60.5855 213.441 61.3525 213.758 62.1523 213.758C62.9521 213.758 63.7191 213.441 64.2847 212.877C64.8502 212.313 65.1679 211.547 65.1679 210.749V151.027L98.9755 212.17C99.3762 212.859 100.035 213.362 100.806 213.567C101.578 213.773 102.4 213.664 103.092 213.266C103.784 212.867 104.289 212.211 104.496 211.442C104.704 210.672 104.597 209.852 104.199 209.161L68.8579 145.245H230.329V145.284L195.01 209.161C194.61 209.852 194.502 210.673 194.709 211.444C194.916 212.215 195.421 212.872 196.114 213.271C196.806 213.67 197.63 213.778 198.402 213.572C199.175 213.365 199.833 212.861 200.233 212.17L230.329 157.739V210.749C230.329 211.547 230.647 212.313 231.212 212.877C231.778 213.441 232.545 213.758 233.345 213.758C234.145 213.758 234.912 213.441 235.477 212.877C236.043 212.313 236.36 211.547 236.36 210.749V146.831L237.238 145.245H242.16C242.959 145.245 243.726 144.928 244.292 144.363C244.857 143.799 245.175 143.034 245.175 142.236C245.175 141.438 244.857 140.672 244.292 140.108C243.726 139.544 242.959 139.227 242.16 139.227Z" fill="#111821"/>
<path d="M164.218 137.375H127.567C126.67 137.375 125.943 138.1 125.943 138.995C125.943 139.89 126.67 140.616 127.567 140.616H164.218C165.115 140.616 165.842 139.89 165.842 138.995C165.842 138.1 165.115 137.375 164.218 137.375Z" fill="#CFCFCF"/>
<path d="M188.807 140.615H147.517C146.717 140.614 145.951 140.297 145.385 139.733C144.82 139.168 144.502 138.404 144.501 137.606V114.922C144.502 114.124 144.82 113.36 145.385 112.795C145.951 112.231 146.717 111.914 147.517 111.913H188.807C189.606 111.914 190.373 112.231 190.938 112.795C191.504 113.36 191.822 114.124 191.822 114.922V137.606C191.822 138.404 191.504 139.168 190.938 139.733C190.373 140.297 189.606 140.614 188.807 140.615Z" fill="#CFCFCF"/>
<path d="M168.162 129.041C169.699 129.041 170.945 127.798 170.945 126.264C170.945 124.73 169.699 123.486 168.162 123.486C166.624 123.486 165.378 124.73 165.378 126.264C165.378 127.798 166.624 129.041 168.162 129.041Z" fill="white"/>
<path d="M220.318 84.7263V3.4819C220.319 2.55877 220.687 1.67374 221.341 1.02098C221.995 0.368227 222.882 0.00105004 223.807 0H288.168C289.093 0.00105004 289.98 0.368227 290.635 1.02098C291.289 1.67374 291.657 2.55877 291.658 3.4819V84.7263C291.657 85.6495 291.289 86.5345 290.635 87.1873C289.98 87.84 289.093 88.2072 288.168 88.2082H223.807C222.882 88.2072 221.995 87.84 221.341 87.1873C220.687 86.5345 220.319 85.6495 220.318 84.7263ZM223.807 0.773758C223.088 0.774565 222.398 1.06014 221.889 1.56785C221.38 2.07555 221.094 2.7639 221.093 3.4819V84.7263C221.094 85.4443 221.38 86.1327 221.889 86.6404C222.398 87.1481 223.088 87.4337 223.807 87.4345H288.168C288.888 87.4337 289.578 87.1481 290.086 86.6404C290.595 86.1327 290.881 85.4443 290.882 84.7263V3.4819C290.881 2.7639 290.595 2.07555 290.086 1.56785C289.578 1.06014 288.888 0.774565 288.168 0.773758H223.807Z" fill="#BBBBBB"/>
<path d="M259.597 37.3107V20.6286C259.597 20.1671 259.781 19.7245 260.108 19.3982C260.436 19.0718 260.879 18.8882 261.342 18.8877H275.509C275.971 18.8882 276.415 19.0718 276.742 19.3982C277.069 19.7245 277.253 20.1671 277.254 20.6286V37.3107C277.253 37.7723 277.069 38.2148 276.742 38.5412C276.415 38.8675 275.971 39.0511 275.509 39.0516H261.342C260.879 39.0511 260.436 38.8675 260.108 38.5412C259.781 38.2148 259.597 37.7723 259.597 37.3107Z" fill="#235797"/>
<path d="M232.069 45.049V28.3669C232.069 27.9054 232.253 27.4628 232.58 27.1365C232.908 26.8101 233.351 26.6265 233.814 26.626H247.981C248.443 26.6265 248.887 26.8101 249.214 27.1365C249.541 27.4628 249.725 27.9054 249.725 28.3669V45.049C249.725 45.5105 249.541 45.9531 249.214 46.2795C248.887 46.6058 248.443 46.7894 247.981 46.7899H233.814C233.351 46.7894 232.908 46.6058 232.58 46.2795C232.253 45.9531 232.069 45.5105 232.069 45.049Z" fill="#CFCFCF"/>
<path d="M254.169 68.6486V51.9665C254.169 51.505 254.353 51.0625 254.681 50.7361C255.008 50.4097 255.451 50.2261 255.914 50.2256H270.081C270.543 50.2261 270.987 50.4097 271.314 50.7361C271.641 51.0625 271.825 51.505 271.826 51.9665V68.6486C271.825 69.1102 271.641 69.5527 271.314 69.879C270.987 70.2054 270.543 70.389 270.081 70.3895H255.914C255.451 70.389 255.008 70.2054 254.681 69.8791C254.353 69.5527 254.169 69.1102 254.169 68.6486Z" fill="#E95C78"/>
<path d="M362.214 8.46597C363.871 8.46597 365.214 7.12563 365.214 5.47224C365.214 3.81885 363.871 2.47852 362.214 2.47852C360.557 2.47852 359.214 3.81885 359.214 5.47224C359.214 7.12563 360.557 8.46597 362.214 8.46597Z" fill="#F2F2F2"/>
<path d="M362.214 20.3966C363.871 20.3966 365.214 19.0563 365.214 17.4029C365.214 15.7495 363.871 14.4092 362.214 14.4092C360.557 14.4092 359.214 15.7495 359.214 17.4029C359.214 19.0563 360.557 20.3966 362.214 20.3966Z" fill="#F2F2F2"/>
<path d="M362.214 32.3283C363.871 32.3283 365.214 30.9879 365.214 29.3345C365.214 27.6812 363.871 26.3408 362.214 26.3408C360.557 26.3408 359.214 27.6812 359.214 29.3345C359.214 30.9879 360.557 32.3283 362.214 32.3283Z" fill="#F2F2F2"/>
<path d="M362.214 44.2599C363.871 44.2599 365.214 42.9196 365.214 41.2662C365.214 39.6128 363.871 38.2725 362.214 38.2725C360.557 38.2725 359.214 39.6128 359.214 41.2662C359.214 42.9196 360.557 44.2599 362.214 44.2599Z" fill="#F2F2F2"/>
<path d="M349.688 8.46597C351.345 8.46597 352.688 7.12563 352.688 5.47224C352.688 3.81885 351.345 2.47852 349.688 2.47852C348.031 2.47852 346.688 3.81885 346.688 5.47224C346.688 7.12563 348.031 8.46597 349.688 8.46597Z" fill="#F2F2F2"/>
<path d="M349.688 20.3966C351.345 20.3966 352.688 19.0563 352.688 17.4029C352.688 15.7495 351.345 14.4092 349.688 14.4092C348.031 14.4092 346.688 15.7495 346.688 17.4029C346.688 19.0563 348.031 20.3966 349.688 20.3966Z" fill="#F2F2F2"/>
<path d="M349.688 32.3283C351.345 32.3283 352.688 30.9879 352.688 29.3345C352.688 27.6812 351.345 26.3408 349.688 26.3408C348.031 26.3408 346.688 27.6812 346.688 29.3345C346.688 30.9879 348.031 32.3283 349.688 32.3283Z" fill="#F2F2F2"/>
<path d="M349.688 44.2599C351.345 44.2599 352.688 42.9196 352.688 41.2662C352.688 39.6128 351.345 38.2725 349.688 38.2725C348.031 38.2725 346.688 39.6128 346.688 41.2662C346.688 42.9196 348.031 44.2599 349.688 44.2599Z" fill="#F2F2F2"/>
<path d="M337.161 8.46597C338.818 8.46597 340.162 7.12563 340.162 5.47224C340.162 3.81885 338.818 2.47852 337.161 2.47852C335.504 2.47852 334.161 3.81885 334.161 5.47224C334.161 7.12563 335.504 8.46597 337.161 8.46597Z" fill="#F2F2F2"/>
<path d="M337.161 20.3966C338.818 20.3966 340.162 19.0563 340.162 17.4029C340.162 15.7495 338.818 14.4092 337.161 14.4092C335.504 14.4092 334.161 15.7495 334.161 17.4029C334.161 19.0563 335.504 20.3966 337.161 20.3966Z" fill="#F2F2F2"/>
<path d="M337.161 32.3283C338.818 32.3283 340.162 30.9879 340.162 29.3345C340.162 27.6812 338.818 26.3408 337.161 26.3408C335.504 26.3408 334.161 27.6812 334.161 29.3345C334.161 30.9879 335.504 32.3283 337.161 32.3283Z" fill="#F2F2F2"/>
<path d="M337.161 44.2599C338.818 44.2599 340.162 42.9196 340.162 41.2662C340.162 39.6128 338.818 38.2725 337.161 38.2725C335.504 38.2725 334.161 39.6128 334.161 41.2662C334.161 42.9196 335.504 44.2599 337.161 44.2599Z" fill="#F2F2F2"/>
<path d="M324.635 8.46597C326.292 8.46597 327.635 7.12563 327.635 5.47224C327.635 3.81885 326.292 2.47852 324.635 2.47852C322.978 2.47852 321.635 3.81885 321.635 5.47224C321.635 7.12563 322.978 8.46597 324.635 8.46597Z" fill="#F2F2F2"/>
<path d="M324.635 20.3966C326.292 20.3966 327.635 19.0563 327.635 17.4029C327.635 15.7495 326.292 14.4092 324.635 14.4092C322.978 14.4092 321.635 15.7495 321.635 17.4029C321.635 19.0563 322.978 20.3966 324.635 20.3966Z" fill="#F2F2F2"/>
<path d="M324.635 32.3283C326.292 32.3283 327.635 30.9879 327.635 29.3345C327.635 27.6812 326.292 26.3408 324.635 26.3408C322.978 26.3408 321.635 27.6812 321.635 29.3345C321.635 30.9879 322.978 32.3283 324.635 32.3283Z" fill="#F2F2F2"/>
<path d="M324.635 44.2599C326.292 44.2599 327.635 42.9196 327.635 41.2662C327.635 39.6128 326.292 38.2725 324.635 38.2725C322.978 38.2725 321.635 39.6128 321.635 41.2662C321.635 42.9196 322.978 44.2599 324.635 44.2599Z" fill="#F2F2F2"/>
<path d="M312.109 8.46597C313.766 8.46597 315.109 7.12563 315.109 5.47224C315.109 3.81885 313.766 2.47852 312.109 2.47852C310.452 2.47852 309.109 3.81885 309.109 5.47224C309.109 7.12563 310.452 8.46597 312.109 8.46597Z" fill="#F2F2F2"/>
<path d="M312.109 20.3966C313.766 20.3966 315.109 19.0563 315.109 17.4029C315.109 15.7495 313.766 14.4092 312.109 14.4092C310.452 14.4092 309.109 15.7495 309.109 17.4029C309.109 19.0563 310.452 20.3966 312.109 20.3966Z" fill="#F2F2F2"/>
<path d="M312.109 32.3283C313.766 32.3283 315.109 30.9879 315.109 29.3345C315.109 27.6812 313.766 26.3408 312.109 26.3408C310.452 26.3408 309.109 27.6812 309.109 29.3345C309.109 30.9879 310.452 32.3283 312.109 32.3283Z" fill="#F2F2F2"/>
<path d="M312.109 44.2599C313.766 44.2599 315.109 42.9196 315.109 41.2662C315.109 39.6128 313.766 38.2725 312.109 38.2725C310.452 38.2725 309.109 39.6128 309.109 41.2662C309.109 42.9196 310.452 44.2599 312.109 44.2599Z" fill="#F2F2F2"/>
<path d="M299.582 8.46597C301.239 8.46597 302.583 7.12563 302.583 5.47224C302.583 3.81885 301.239 2.47852 299.582 2.47852C297.926 2.47852 296.582 3.81885 296.582 5.47224C296.582 7.12563 297.926 8.46597 299.582 8.46597Z" fill="#F2F2F2"/>
<path d="M299.582 20.3966C301.239 20.3966 302.583 19.0563 302.583 17.4029C302.583 15.7495 301.239 14.4092 299.582 14.4092C297.926 14.4092 296.582 15.7495 296.582 17.4029C296.582 19.0563 297.926 20.3966 299.582 20.3966Z" fill="#F2F2F2"/>
<path d="M299.582 32.3283C301.239 32.3283 302.583 30.9879 302.583 29.3345C302.583 27.6812 301.239 26.3408 299.582 26.3408C297.926 26.3408 296.582 27.6812 296.582 29.3345C296.582 30.9879 297.926 32.3283 299.582 32.3283Z" fill="#F2F2F2"/>
<path d="M299.582 44.2599C301.239 44.2599 302.583 42.9196 302.583 41.2662C302.583 39.6128 301.239 38.2725 299.582 38.2725C297.926 38.2725 296.582 39.6128 296.582 41.2662C296.582 42.9196 297.926 44.2599 299.582 44.2599Z" fill="#F2F2F2"/>
<path d="M311.67 111.684C311.424 111.009 311.323 110.291 311.375 109.575C311.426 108.859 311.629 108.163 311.969 107.531C312.309 106.898 312.78 106.345 313.349 105.907C313.918 105.469 314.574 105.155 315.273 104.988C315.495 104.936 315.72 104.899 315.947 104.878L327.222 85.1582L324.375 80.2778L331.461 74.8223L336.883 82.3365C337.53 83.2399 337.867 84.3271 337.846 85.437C337.824 86.5468 337.444 87.6201 336.763 88.4975L321.284 108.271C321.34 108.428 321.388 108.588 321.428 108.75C321.596 109.448 321.614 110.173 321.481 110.879C321.348 111.584 321.068 112.253 320.658 112.843C320.248 113.432 319.718 113.929 319.102 114.3C318.486 114.671 317.799 114.908 317.085 114.995C316.878 115.021 316.669 115.034 316.461 115.034C315.415 115.031 314.395 114.708 313.538 114.109C312.682 113.51 312.03 112.663 311.67 111.684Z" fill="#FFB8B8"/>
<path d="M289.672 208.73L283.984 208.73L281.279 186.839L289.673 186.839L289.672 208.73Z" fill="#FFB8B8"/>
<path d="M279.922 207.108H290.891V214H273.015C273.015 213.095 273.194 212.199 273.541 211.363C273.888 210.527 274.397 209.767 275.038 209.127C275.68 208.487 276.441 207.979 277.279 207.633C278.117 207.287 279.015 207.108 279.922 207.108Z" fill="#031730"/>
<path d="M336.53 208.73L330.842 208.73L328.136 186.839L336.531 186.839L336.53 208.73Z" fill="#FFB8B8"/>
<path d="M326.779 207.108H337.749V214H319.873C319.873 213.095 320.051 212.199 320.399 211.363C320.746 210.527 321.254 209.767 321.896 209.127C322.537 208.487 323.298 207.979 324.136 207.633C324.974 207.287 325.872 207.108 326.779 207.108Z" fill="#031730"/>
<path d="M333.039 75.8878L320.269 80.7297L317.152 72.0884C316.738 70.9409 316.743 69.6844 317.168 68.5408C317.593 67.3972 318.409 66.4403 319.472 65.839C320.548 65.2308 321.806 65.0264 323.019 65.2628C324.233 65.4992 325.322 66.1608 326.089 67.128L333.039 75.8878Z" fill="#235797"/>
<path d="M290.163 191L279.454 188.563C278.884 188.432 278.385 188.091 278.057 187.609C277.729 187.126 277.596 186.538 277.685 185.961C281.982 158.783 286.117 142.867 296.772 122.654C296.92 122.277 298.584 114.628 299.67 109.56C299.657 109.002 299.849 108.458 300.209 108.03C300.568 107.602 301.072 107.319 301.625 107.235L321.595 104.168C321.896 104.064 322.214 104.016 322.532 104.027L322.732 104.065L322.73 104.261C322.727 104.463 322.525 104.494 322.449 104.506L322.184 104.547C322.486 104.687 322.765 104.876 323.007 105.105C331.757 115.606 336.307 150.028 342.086 188.055C342.118 188.364 342.08 188.676 341.975 188.968C341.871 189.26 341.702 189.525 341.481 189.744C341.272 189.972 341.018 190.155 340.736 190.282C340.454 190.41 340.149 190.479 339.839 190.485L327.081 190.795C326.52 190.808 325.974 190.617 325.544 190.257C325.115 189.898 324.83 189.395 324.745 188.842L316.151 139.286C316.091 138.899 315.91 138.541 315.633 138.264C315.355 137.987 314.997 137.805 314.609 137.745C314.221 137.686 313.824 137.751 313.476 137.932C313.128 138.113 312.847 138.4 312.674 138.751C305.74 152.84 299.275 165.025 292.907 189.334C292.781 189.827 292.494 190.264 292.091 190.576C291.689 190.888 291.193 191.058 290.684 191.059C290.509 191.059 290.334 191.039 290.163 191Z" fill="#031730"/>
<path d="M300.559 110.126C300.29 109.936 300.065 109.692 299.898 109.408C299.732 109.125 299.627 108.81 299.592 108.483C297.957 93.2482 299.096 81.3257 303.074 72.0343C303.775 70.4318 304.831 69.0085 306.162 67.8716C307.493 66.7347 309.066 65.9136 310.76 65.4701L321.083 64.9502L321.136 64.976C323.466 66.1144 325.365 67.9715 326.553 70.2721C327.742 72.5726 328.155 75.1939 327.733 77.7475C324.413 86.4799 321.633 95.5717 323.753 102.906C323.842 103.213 323.868 103.534 323.829 103.851C323.791 104.168 323.689 104.474 323.529 104.75C323.374 105.017 323.165 105.25 322.917 105.434C322.668 105.618 322.384 105.749 322.083 105.819L302.422 110.486C302.104 110.561 301.773 110.568 301.452 110.506C301.13 110.444 300.826 110.315 300.559 110.126Z" fill="#235797"/>
<path d="M296.116 88.2639L276.317 72.6788C276.16 72.7342 275.999 72.7814 275.837 72.8203C275.138 72.9834 274.413 72.998 273.708 72.8631C273.003 72.7282 272.335 72.4469 271.746 72.0373C271.153 71.6275 270.655 71.0961 270.285 70.4787C269.915 69.8613 269.681 69.1721 269.599 68.4573C269.467 67.3145 269.725 66.1606 270.332 65.1826C270.939 64.2046 271.86 63.46 272.944 63.0696C273.621 62.8274 274.341 62.7305 275.058 62.7855C275.775 62.8404 276.473 63.0459 277.105 63.3884C277.736 63.7309 278.289 64.2028 278.725 64.7731C279.161 65.3434 279.472 65.9993 279.637 66.6978C279.688 66.9191 279.723 67.1438 279.743 67.37L299.452 78.7152L304.356 75.8976L309.789 82.9953L302.174 88.4112C301.283 89.04 300.212 89.3653 299.121 89.3388C298.029 89.3122 296.975 88.9353 296.116 88.2639H296.116Z" fill="#FFB8B8"/>
<path d="M312.205 85.2053L300.909 77.5404L306.218 70.0377C306.923 69.0415 307.958 68.326 309.141 68.0176C310.323 67.7093 311.577 67.8279 312.68 68.3527C313.796 68.8835 314.685 69.795 315.187 70.9226C315.688 72.0503 315.769 73.3197 315.415 74.5016L312.205 85.2053Z" fill="#235797"/>
<path d="M317.638 61.1034C323.931 61.1034 329.033 56.0129 329.033 49.7333C329.033 43.4538 323.931 38.3633 317.638 38.3633C311.345 38.3633 306.243 43.4538 306.243 49.7333C306.243 56.0129 311.345 61.1034 317.638 61.1034Z" fill="#FFB8B8"/>
<path d="M313.46 48.04C310.532 50.0401 306.686 52.096 303.695 49.9661C301.731 48.5675 301.112 45.9777 301.909 43.705C303.341 39.618 307.276 37.8187 311.039 36.4395C315.931 34.6465 321.258 33.2202 326.308 34.5042C331.358 35.7882 335.821 40.6672 334.909 45.7872C334.176 49.9046 330.284 53.3306 330.836 57.476C331.393 61.648 336.095 63.844 340.246 64.5897C344.397 65.3353 349.042 65.5749 352.025 68.5501C355.831 72.3456 354.881 79.1296 351.3 83.1369C347.719 87.1442 342.315 88.9606 337.078 90.1955C330.14 91.8316 322.636 92.6914 316.047 89.9762C309.458 87.2609 304.33 79.9517 306.239 73.0978C307.045 70.2027 308.945 67.756 310.78 65.374C312.616 62.992 314.475 60.5012 315.175 57.5788C315.758 55.1434 315.326 52.3158 313.708 50.489C313.414 50.1693 313.228 49.7647 313.179 49.3333C313.129 48.9019 313.218 48.466 313.432 48.0881L313.46 48.04Z" fill="#031730"/>
</svg>
